<svg xmlns="http://www.w3.org/2000/svg" viewBox="0 0 24 24" id="subway" width="48" height="48">
  <path fill="#0A9B4A" d="M21.185 4.627 15.487 0v2.347H10.85c-4.324 0-8.349 2.434-8.349 7.037 0 1.984.812 4.377 3.164 5.378h6.841c.149 0 .414-.097.48-.258.118-.288.083-.501-.596-.872-.679-.371-1.426-.662-2.037-.984-.613-.323-2.22-.889-2.22-3.117 0-1.55 1.623-2.632 3.28-2.632h4.075v2.356l5.697-4.628z"></path>
  <path fill="#FFCA05" d="M2.633 19.373 8.387 24v-2.346h4.683c4.637 0 8.43-2.435 8.43-7.037 0-2.019-1.176-4.28-3.278-5.378H11.52c-.151 0-.418.097-.485.258-.12.288-.084.501.602.872.686.371 1.424.662 2.043.984.618.323 2.25.97 2.25 3.001 0 1.551-1.439 2.748-3.112 2.748H8.387v-2.357l-5.754 4.628z"></path>
  <path fill="#098740" d="M12 2.347h-1.15c-4.324 0-8.349 2.434-8.349 7.037 0 1.984.812 4.377 3.164 5.378h2.701l.021-.017v.017H12V13.43c-.566-.28-1.151-.521-1.648-.782-.613-.323-2.22-.889-2.22-3.117 0-1.55 1.623-2.632 3.28-2.632H12V2.347z"></path>
  <path fill="#DEB004" d="m8.387 14.745-.021.017-5.733 4.611L8.387 24v-2.346H12v-4.552H8.387V14.745zM12 9.238h-.48c-.151 0-.418.097-.485.258-.12.288-.084.501.602.872.12.065.241.127.362.187V9.238H12z"></path>
</svg>
